<svg width="200" height="200" viewBox="0 0 200 200" xmlns="http://www.w3.org/2000/svg">
  <!-- Body -->
  <path d="M60,100 C60,60 100,40 140,60 C160,70 180,90 170,120 C160,150 130,160 100,150 C70,140 60,130 60,100 Z" 
        fill="#235082" stroke="#2C363F" stroke-width="3"/>
  
  <!-- Tail -->
  <path d="M60,100 C40,110 20,120 10,100 C0,80 20,70 40,90 Z" 
        fill="#4ECDC4" stroke="#2C363F" stroke-width="3"/>
  
  <!-- Head -->
  <circle cx="160" cy="80" r="20" fill="#FF6B6B" stroke="#2C363F" stroke-width="3"/>
  
  <!-- Eye -->
  <circle cx="165" cy="75" r="5" fill="#FFFFFF"/>
  <circle cx="166" cy="74" r="2" fill="#2C363F"/>
  
  <!-- Legs -->
  <path d="M80,130 C70,150 60,170 70,180" fill="none" stroke="#2C363F" stroke-width="3"/>
  <path d="M110,145 C100,165 95,175 105,185" fill="none" stroke="#2C363F" stroke-width="3"/>
  <path d="M140,120 C150,140 160,150 155,165" fill="none" stroke="#2C363F" stroke-width="3"/>
  
  <!-- Text - Optional -->
  <text x="100" y="190" font-family="Arial" font-size="12" text-anchor="middle" fill="#235082">Amanda's Rentals</text>
</svg> 